<svg width="22" height="22" viewBox="0 0 22 22" fill="none" xmlns="http://www.w3.org/2000/svg">
<path d="M7.33331 6.63341H12.682C12.8201 6.63341 12.9526 6.57854 13.0503 6.48087C13.1479 6.3832 13.2028 6.25073 13.2028 6.1126C13.2028 5.97448 13.1479 5.84201 13.0503 5.74434C12.9526 5.64667 12.8201 5.5918 12.682 5.5918H7.33331C7.19518 5.5918 7.06271 5.64667 6.96504 5.74434C6.86737 5.84201 6.8125 5.97448 6.8125 6.1126C6.8125 6.25073 6.86737 6.3832 6.96504 6.48087C7.06271 6.57854 7.19518 6.63341 7.33331 6.63341ZM7.33331 9.46486H9.7377C9.87583 9.46486 10.0083 9.40999 10.106 9.31232C10.2036 9.21465 10.2585 9.08218 10.2585 8.94406C10.2585 8.80593 10.2036 8.67346 10.106 8.57579C10.0083 8.47812 9.87583 8.42325 9.7377 8.42325H7.33331C7.19518 8.42325 7.06271 8.47812 6.96504 8.57579C6.86737 8.67346 6.8125 8.80593 6.8125 8.94406C6.8125 9.08218 6.86737 9.21465 6.96504 9.31232C7.06271 9.40999 7.19518 9.46486 7.33331 9.46486Z" fill="#172A51"/>
<path d="M15.7475 2.37793H6.24568C5.57677 2.3787 4.93547 2.64476 4.46248 3.11775C3.98949 3.59074 3.72342 4.23204 3.72266 4.90095V15.4618C3.72342 16.1307 3.98949 16.772 4.46248 17.245C4.93547 17.7179 5.57677 17.984 6.24568 17.9848H8.88443C9.02256 17.9848 9.15503 17.9299 9.2527 17.8322C9.35037 17.7346 9.40524 17.6021 9.40524 17.464C9.40524 17.3258 9.35037 17.1934 9.2527 17.0957C9.15503 16.998 9.02256 16.9432 8.88443 16.9432H6.24568C5.85292 16.9427 5.47639 16.7865 5.19867 16.5088C4.92095 16.231 4.76473 15.8545 4.76427 15.4618V4.90095C4.76458 4.50815 4.92075 4.13153 5.1985 3.85378C5.47625 3.57602 5.85288 3.41985 6.24568 3.41954H15.7475C16.1403 3.42 16.5168 3.57623 16.7945 3.85394C17.0722 4.13166 17.2285 4.5082 17.2289 4.90095V15.4618C17.2296 15.7733 17.1315 16.077 16.9485 16.3292C16.7656 16.5814 16.5074 16.769 16.211 16.865C16.146 16.8863 16.0858 16.9201 16.0339 16.9646C15.982 17.0091 15.9393 17.0634 15.9083 17.1244C15.8774 17.1854 15.8588 17.2519 15.8535 17.3201C15.8482 17.3883 15.8565 17.4568 15.8777 17.5218C15.899 17.5869 15.9328 17.647 15.9773 17.699C16.0218 17.7509 16.0761 17.7936 16.1371 17.8245C16.1981 17.8555 16.2646 17.8741 16.3327 17.8794C16.4009 17.8846 16.4695 17.8764 16.5345 17.8552C17.0399 17.6912 17.4804 17.3712 17.7924 16.9411C18.1045 16.5111 18.2721 15.9931 18.2711 15.4618V4.90095C18.27 4.23203 18.0038 3.59083 17.5307 3.11788C17.0577 2.64494 16.4164 2.37885 15.7475 2.37793Z" fill="#172A51"/>
<path d="M12.6299 11.3926C11.8924 11.3933 11.1852 11.6866 10.6636 12.2081C10.142 12.7296 9.84858 13.4367 9.84766 14.1743C9.84766 14.948 10.1665 15.6476 10.6781 16.1522V19.1023C10.678 19.1963 10.7034 19.2886 10.7516 19.3693C10.7998 19.4501 10.869 19.5163 10.9517 19.5609C11.0345 19.6055 11.1278 19.6269 11.2218 19.6228C11.3157 19.6186 11.4068 19.5891 11.4853 19.5374L12.6305 18.7863L13.7757 19.5374C13.8543 19.5891 13.9454 19.6185 14.0393 19.6225C14.1333 19.6265 14.2266 19.6049 14.3092 19.56C14.392 19.5154 14.4611 19.4493 14.5093 19.3686C14.5575 19.2879 14.5829 19.1957 14.5829 19.1017V16.151C14.8457 15.893 15.0544 15.5851 15.1968 15.2455C15.3393 14.906 15.4127 14.5414 15.4128 14.1731C15.4114 13.4357 15.1177 12.7289 14.596 12.2077C14.0744 11.6865 13.3673 11.3933 12.6299 11.3926ZM12.6299 12.4342C13.5888 12.4342 14.3694 13.2148 14.3694 14.1743C14.3694 15.1337 13.5888 15.9143 12.6299 15.9143C11.6705 15.9143 10.8898 15.1337 10.8898 14.1743C10.8898 13.2148 11.6705 12.4342 12.6299 12.4342ZM13.5402 18.1376L12.9164 17.7279C12.8313 17.6724 12.732 17.6429 12.6305 17.6429C12.529 17.6429 12.4297 17.6724 12.3446 17.7279L11.7208 18.1376V16.7905C12.0125 16.8966 12.3201 16.9526 12.6305 16.956C12.9409 16.9527 13.2485 16.8967 13.5402 16.7905V18.1376Z" fill="#172A51"/>
</svg>
