<svg width="24" height="24" viewBox="0 0 24 24" fill="none" xmlns="http://www.w3.org/2000/svg">
<path d="M19.9758 4.85983L12.1525 2.22605C12.0539 2.19288 11.9472 2.19288 11.8487 2.22605L4.02535 4.85983C3.93088 4.89163 3.84878 4.95229 3.79061 5.03324C3.73245 5.11419 3.70117 5.21136 3.70117 5.31103V11.8503C3.70117 16.6936 7.15366 20.8745 11.9105 21.7914C11.97 21.8029 12.0311 21.8029 12.0906 21.7914C16.8474 20.8745 20.2999 16.6936 20.2999 11.8503V5.31103C20.3 5.21136 20.2687 5.11419 20.2105 5.03323C20.1524 4.95228 20.0703 4.89162 19.9758 4.85983ZM19.3478 11.8503C19.3478 16.2076 16.2636 19.9729 12.0006 20.8386C7.73753 19.9729 4.65338 16.2076 4.65338 11.8503V5.6531L12.0006 3.1796L19.3478 5.6531V11.8503ZM11.1169 13.7289L16.1266 8.93233C16.3165 8.7505 16.6179 8.75705 16.7997 8.94697C16.9815 9.13689 16.975 9.43825 16.7851 9.62011L11.4529 14.7254C11.3643 14.8104 11.2463 14.8578 11.1236 14.8576C11.0043 14.8577 10.8894 14.813 10.8016 14.7322L7.82775 12.0012C7.6341 11.8233 7.62129 11.5221 7.79911 11.3285C7.97696 11.1348 8.27817 11.122 8.47181 11.2998L11.1169 13.7289Z" fill="#1B2437"/>
</svg>
